<svg id="mermaid-1605676298357" width="100%" xmlns="http://www.w3.org/2000/svg" xmlns:xlink="http://www.w3.org/1999/xlink" height="249.734375" style="max-width: 376.30078125px;" viewBox="-20 -20 376.30078125 249.734375"><style>#mermaid-1605676298357{font-family:"trebuchet ms",verdana,arial;font-size:16px;fill:#333;}#mermaid-1605676298357 .error-icon{fill:#552222;}#mermaid-1605676298357 .error-text{fill:#552222;stroke:#552222;}#mermaid-1605676298357 .edge-thickness-normal{stroke-width:2px;}#mermaid-1605676298357 .edge-thickness-thick{stroke-width:3.5px;}#mermaid-1605676298357 .edge-pattern-solid{stroke-dasharray:0;}#mermaid-1605676298357 .edge-pattern-dashed{stroke-dasharray:3;}#mermaid-1605676298357 .edge-pattern-dotted{stroke-dasharray:2;}#mermaid-1605676298357 .marker{fill:#333333;}#mermaid-1605676298357 .marker.cross{stroke:#333333;}#mermaid-1605676298357 svg{font-family:"trebuchet ms",verdana,arial;font-size:16px;}#mermaid-1605676298357 g.classGroup text{fill:#9370DB;fill:#131300;stroke:none;font-family:"trebuchet ms",verdana,arial;font-size:10px;}#mermaid-1605676298357 g.classGroup text .title{font-weight:bolder;}#mermaid-1605676298357 .classTitle{font-weight:bolder;}#mermaid-1605676298357 .node rect,#mermaid-1605676298357 .node circle,#mermaid-1605676298357 .node ellipse,#mermaid-1605676298357 .node polygon,#mermaid-1605676298357 .node path{fill:#ECECFF;stroke:#9370DB;stroke-width:1px;}#mermaid-1605676298357 .divider{stroke:#9370DB;stroke:1;}#mermaid-1605676298357 g.clickable{cursor:pointer;}#mermaid-1605676298357 g.classGroup rect{fill:#ECECFF;stroke:#9370DB;}#mermaid-1605676298357 g.classGroup line{stroke:#9370DB;stroke-width:1;}#mermaid-1605676298357 .classLabel .box{stroke:none;stroke-width:0;fill:#ECECFF;opacity:0.5;}#mermaid-1605676298357 .classLabel .label{fill:#9370DB;font-size:10px;}#mermaid-1605676298357 .relation{stroke:#333333;stroke-width:1;fill:none;}#mermaid-1605676298357 .dashed-line{stroke-dasharray:3;}#mermaid-1605676298357 #compositionStart,#mermaid-1605676298357 .composition{fill:#333333 !important;stroke:#333333 !important;stroke-width:1;}#mermaid-1605676298357 #compositionEnd,#mermaid-1605676298357 .composition{fill:#333333 !important;stroke:#333333 !important;stroke-width:1;}#mermaid-1605676298357 #dependencyStart,#mermaid-1605676298357 .dependency{fill:#333333 !important;stroke:#333333 !important;stroke-width:1;}#mermaid-1605676298357 #dependencyStart,#mermaid-1605676298357 .dependency{fill:#333333 !important;stroke:#333333 !important;stroke-width:1;}#mermaid-1605676298357 #extensionStart,#mermaid-1605676298357 .extension{fill:#333333 !important;stroke:#333333 !important;stroke-width:1;}#mermaid-1605676298357 #extensionEnd,#mermaid-1605676298357 .extension{fill:#333333 !important;stroke:#333333 !important;stroke-width:1;}#mermaid-1605676298357 #aggregationStart,#mermaid-1605676298357 .aggregation{fill:#ECECFF !important;stroke:#333333 !important;stroke-width:1;}#mermaid-1605676298357 #aggregationEnd,#mermaid-1605676298357 .aggregation{fill:#ECECFF !important;stroke:#333333 !important;stroke-width:1;}#mermaid-1605676298357 .edgeTerminals{font-size:11px;}#mermaid-1605676298357:root{--mermaid-font-family:"trebuchet ms",verdana,arial;}#mermaid-1605676298357 class{fill:apa;}</style><g></g><defs><marker id="extensionStart" class="extension" refX="0" refY="7" markerWidth="190" markerHeight="240" orient="auto"><path d="M 1,7 L18,13 V 1 Z"></path></marker></defs><defs><marker id="extensionEnd" refX="19" refY="7" markerWidth="20" markerHeight="28" orient="auto"><path d="M 1,1 V 13 L18,7 Z"></path></marker></defs><defs><marker id="compositionStart" class="extension" refX="0" refY="7" markerWidth="190" markerHeight="240" orient="auto"><path d="M 18,7 L9,13 L1,7 L9,1 Z"></path></marker></defs><defs><marker id="compositionEnd" refX="19" refY="7" markerWidth="20" markerHeight="28" orient="auto"><path d="M 18,7 L9,13 L1,7 L9,1 Z"></path></marker></defs><defs><marker id="aggregationStart" class="extension" refX="0" refY="7" markerWidth="190" markerHeight="240" orient="auto"><path d="M 18,7 L9,13 L1,7 L9,1 Z"></path></marker></defs><defs><marker id="aggregationEnd" refX="19" refY="7" markerWidth="20" markerHeight="28" orient="auto"><path d="M 18,7 L9,13 L1,7 L9,1 Z"></path></marker></defs><defs><marker id="dependencyStart" class="extension" refX="0" refY="7" markerWidth="190" markerHeight="240" orient="auto"><path d="M 5,7 L9,13 L1,7 L9,1 Z"></path></marker></defs><defs><marker id="dependencyEnd" refX="19" refY="7" markerWidth="20" markerHeight="28" orient="auto"><path d="M 18,7 L9,13 L14,7 L9,1 Z"></path></marker></defs><g id="classid-AbstractMosaicFilter-215" class="classGroup" transform="translate(74.46875,0 )"><rect x="0" y="0" width="106.453125" height="48.359375" class=" "></rect><text y="15" x="0"><tspan class="title" x="5">AbstractMosaicFilter</tspan></text><line x1="0" y1="21.34375" y2="21.34375" x2="106.453125"></line><text x="5" y="31.34375" fill="white" class="classText"></text><line x1="0" y1="26.34375" y2="26.34375" x2="106.453125"></line><text x="5" y="41.34375" fill="white" class="classText"><tspan x="5">+process()</tspan></text></g><g id="classid-EyesLineMosaicFilter-216" class="classGroup" transform="translate(0,98.359375 )"><rect x="0" y="0" width="108.234375" height="30.6875" class=" "></rect><text y="15" x="0"><tspan class="title" x="5">EyesLineMosaicFilter</tspan></text><line x1="0" y1="21.34375" y2="21.34375" x2="108.234375"></line><text x="5" y="31.34375" fill="white" class="classText"></text><line x1="0" y1="26.34375" y2="26.34375" x2="108.234375"></line><text x="5" y="41.34375" fill="white" class="classText"></text></g><g id="classid-BlurMosaicFilter-217" class="classGroup" transform="translate(158.234375,98.359375 )"><rect x="0" y="0" width="86.078125" height="30.6875" class=" "></rect><text y="15" x="0"><tspan class="title" x="5">BlurMosaicFilter</tspan></text><line x1="0" y1="21.34375" y2="21.34375" x2="86.078125"></line><text x="5" y="31.34375" fill="white" class="classText"></text><line x1="0" y1="26.34375" y2="26.34375" x2="86.078125"></line><text x="5" y="41.34375" fill="white" class="classText"></text></g><g id="classid-GaussBlurMosaicFilter-218" class="classGroup" transform="translate(64.50390625,179.046875 )"><rect x="0" y="0" width="112.640625" height="30.6875" class=" "></rect><text y="15" x="0"><tspan class="title" x="5">GaussBlurMosaicFilter</tspan></text><line x1="0" y1="21.34375" y2="21.34375" x2="112.640625"></line><text x="5" y="31.34375" fill="white" class="classText"></text><line x1="0" y1="26.34375" y2="26.34375" x2="112.640625"></line><text x="5" y="41.34375" fill="white" class="classText"></text></g><g id="classid-PixelBlurMosaicFilter-219" class="classGroup" transform="translate(227.14453125,179.046875 )"><rect x="0" y="0" width="109.15625" height="30.6875" class=" "></rect><text y="15" x="0"><tspan class="title" x="5">PixelBlurMosaicFilter</tspan></text><line x1="0" y1="21.34375" y2="21.34375" x2="109.15625"></line><text x="5" y="31.34375" fill="white" class="classText"></text><line x1="0" y1="26.34375" y2="26.34375" x2="109.15625"></line><text x="5" y="41.34375" fill="white" class="classText"></text></g><path d="M91.51988805599683,48.359375L85.28610462999735,52.526041666666664C79.05232120399789,56.692708333333336,66.58475435199894,65.02604166666667,60.35097092599947,73.359375C54.1171875,81.69270833333333,54.1171875,90.02604166666667,54.1171875,94.19270833333333L54.1171875,98.359375" id="edge103" class="relation" marker-start="url(#extensionStart)"></path><path d="M163.87073694400317,48.359375L170.10452037000263,52.526041666666664C176.33830379600212,56.692708333333336,188.80587064800105,65.02604166666667,195.0396540740005,73.359375C201.2734375,81.69270833333333,201.2734375,90.02604166666667,201.2734375,94.19270833333333L201.2734375,98.359375" id="edge104" class="relation" marker-start="url(#extensionStart)"></path><path d="M170.67656189484896,129.046875L162.36783803737413,133.21354166666666C154.0591141798993,137.38020833333334,137.44166646494966,145.71354166666666,129.13294260747483,154.046875C120.82421875,162.38020833333334,120.82421875,170.71354166666666,120.82421875,174.88020833333334L120.82421875,179.046875" id="edge105" class="relation" marker-start="url(#extensionStart)"></path><path d="M231.87031310515104,129.046875L240.17903696262587,133.21354166666666C248.48776082010068,137.38020833333334,265.10520853505034,145.71354166666666,273.41393239252517,154.046875C281.72265625,162.38020833333334,281.72265625,170.71354166666666,281.72265625,174.88020833333334L281.72265625,179.046875" id="edge106" class="relation" marker-start="url(#extensionStart)"></path></svg>